<svg width="456" height="461" viewBox="0 0 456 461" fill="none" xmlns="http://www.w3.org/2000/svg">
<g id="coffeeAGNTCY_Mark1C-White" clip-path="url(#clip0_5321_243)">
<g id="Group 1">
<path id="Vector" d="M127.707 78.4014L115.799 90.3091L135.386 109.896L147.294 97.9883L127.707 78.4014Z" fill="white"/>
<path id="Vector_2" d="M146.837 97.5296L134.929 109.437L164.606 139.115L176.514 127.207L146.837 97.5296Z" fill="white"/>
<path id="Vector_3" d="M211.097 188.27C205.937 188.3 200.767 188.25 195.607 188.27L195.587 70.1399C195.237 68.6999 175.747 49.9799 174.397 49.3699C172.117 48.3299 168.827 50.3799 167.627 47.8999C176.097 48.4699 181.527 46.4499 183.117 37.4099L211.077 63.6499L211.097 188.28V188.27Z" fill="white"/>
<path id="Vector_4" d="M227.087 187.77V188.77L226.087 188.27L227.087 187.77Z" fill="white"/>
<path id="Vector_5" d="M324.737 404.8C321.027 407.96 317.187 411.16 313.187 413.99C310.357 416 295.707 424 295.047 424.83C294.537 425.46 294.387 425.68 294.537 426.57L425.927 426.08C428.297 428.07 397.847 458.73 394.187 460.03L29.9468 459.59C26.5168 458.38 -1.49324 427.95 0.266758 426.58H130.667L130.347 425.04C86.8068 402.49 53.4868 358.73 42.9668 310.69C36.1568 279.56 38.2768 247.13 45.7968 216.33L379.277 216.7C398.197 284.96 378.827 358.73 324.737 404.81V404.8ZM354.437 242.28H71.0268C48.9768 345.6 141.407 435.66 244.667 413.42C316.747 397.89 365.067 327.45 356.477 254.47C356.297 252.95 354.937 242.63 354.437 242.28Z" fill="white"/>
<path id="Vector_6" d="M391.177 207.96C391.177 207.96 452.347 209.95 455.697 269.8C457.567 303.17 431.127 337.11 389.347 337.18C392.897 328.02 395.577 318.22 397.027 307.5C422.947 304.44 430.187 287 429.437 267.8C428.777 250.89 416.117 236.42 397.917 236.89C397.487 226.34 394.327 216.72 391.167 207.96H391.177Z" fill="white"/>
<path id="Vector_7" d="M91.1968 301.67L104.687 333.64C98.8668 325.14 92.7568 311.86 91.1968 301.67Z" fill="white"/>
<path id="Vector_8" d="M88.6968 284.69C86.5968 283.05 86.9268 277.38 87.6968 275.2C87.7468 278.22 88.6168 281.49 88.6968 284.69Z" fill="white"/>
<path id="Vector_9" d="M107.677 339.14C109.677 339.85 110.727 342.97 111.677 344.64C109.437 343.92 108.547 340.98 107.677 339.14Z" fill="white"/>
<path id="Vector_10" d="M89.6967 291.18C87.2367 291.11 88.6867 287.34 88.6967 286.68C89.6567 287.95 89.6667 289.67 89.6967 291.18Z" fill="white"/>
<path id="Vector_11" d="M90.1967 296.68C88.4667 295.3 89.6967 293.63 89.6967 292.68C91.4467 294.02 90.1667 295.84 90.1967 296.68Z" fill="white"/>
<path id="Vector_12" d="M115.177 349.13C113.137 348.88 112.937 347 112.177 345.63C113.997 345.85 114.447 347.95 115.177 349.13Z" fill="white"/>
<path id="Vector_13" d="M120.167 355.13C118.137 355.03 117.907 353.07 117.167 352.13C119.197 352.22 119.417 354.19 120.167 355.13Z" fill="white"/>
<path id="Vector_14" d="M105.187 335.15C106.867 335.18 107.207 337.57 107.687 338.65C106.037 338.61 105.637 336.25 105.187 335.15Z" fill="white"/>
<path id="Vector_15" d="M90.1968 297.68C92.2968 297.35 91.1468 300.27 91.1968 300.68C90.1368 299.94 90.1868 298.81 90.1968 297.68Z" fill="white"/>
<path id="Vector_16" d="M116.677 351.13C116.617 351.04 116.137 351.19 115.177 349.63L116.677 351.13Z" fill="white"/>
<g id="Group">
<path id="Vector_17" d="M340.727 259.17H284.927C285.427 263.58 285.687 268.06 285.687 272.62C285.687 333 240.727 381.95 185.257 381.95C155.037 381.95 127.927 367.41 109.517 344.41C132.547 377.31 170.727 398.83 213.937 398.83C284.287 398.83 341.317 341.8 341.317 271.45C341.317 267.31 341.117 263.21 340.727 259.17Z" fill="white"/>
<path id="Vector_18" d="M185.247 381.95C240.717 381.95 285.677 333 285.677 272.62C285.677 268.07 285.417 263.58 284.917 259.17H87.1369C86.7469 263.21 86.5469 267.31 86.5469 271.45C86.5469 298.59 95.0469 323.75 109.507 344.41C127.917 367.41 155.027 381.95 185.247 381.95Z" fill="white"/>
</g>
<path id="Vector_19" d="M296.157 11.1599C288.167 11.1599 281.687 17.6399 281.687 25.6299C281.687 26.2799 281.747 26.9199 281.827 27.5499L267.517 40.9699L279.027 52.4799C285.417 46.6799 290.697 41.8899 293.057 39.7599C294.057 39.9799 295.097 40.0999 296.167 40.0999C304.157 40.0999 310.637 33.6199 310.637 25.6299C310.637 17.6399 304.157 11.1599 296.167 11.1599H296.157Z" fill="white"/>
<path id="Vector_20" d="M370.727 188.27H275.047L274.767 102.82L318.627 62.74L306.847 50.94L259.047 95.11V188.14L242.557 188.28L242.667 85.73C249.977 78.9 266.577 63.78 279.007 52.49L267.497 40.98L227.217 78.75L227.077 188.25C227.077 188.25 100.567 189.14 53.0468 188.76L48.2168 205.77H376.967C376.217 203.17 372.977 188.29 370.717 188.29L370.727 188.27Z" fill="white"/>
<path id="Vector_21" d="M320.177 64.8701C328.328 64.8701 334.937 58.2618 334.937 50.1101C334.937 41.9584 328.328 35.3501 320.177 35.3501C312.025 35.3501 305.417 41.9584 305.417 50.1101C305.417 58.2618 312.025 64.8701 320.177 64.8701Z" fill="white"/>
<path id="Vector_22" d="M134.927 29.52C143.078 29.52 149.687 22.9117 149.687 14.76C149.687 6.60828 143.078 0 134.927 0C126.775 0 120.167 6.60828 120.167 14.76C120.167 22.9117 126.775 29.52 134.927 29.52Z" fill="white"/>
<path id="Vector_23" d="M172.097 49.1301C180.248 49.1301 186.857 42.5218 186.857 34.3701C186.857 26.2184 180.248 19.6101 172.097 19.6101C163.945 19.6101 157.337 26.2184 157.337 34.3701C157.337 42.5218 163.945 49.1301 172.097 49.1301Z" fill="white"/>
<path id="Vector_24" d="M179.267 168.89H163.777L163.667 85.72L127.327 52.48L138.847 40.97L179.127 78.74L179.267 168.89Z" fill="white"/>
<path id="Vector_25" d="M143.127 17.1699H127.327V52.4899H143.127V17.1699Z" fill="white"/>
</g>
</g>
<defs>
<clipPath id="clip0_5321_243">
<rect width="455.61" height="460.02" fill="white" transform="translate(0.186768)"/>
</clipPath>
</defs>
</svg>
