<?xml version="1.0" encoding="UTF-8"?>
<svg version="1.1" xmlns="http://www.w3.org/2000/svg" width="1024" height="191">
<path d="M0 0 C39.27 0 78.54 0 119 0 C119 10.23 119 20.46 119 31 C104.15 31 89.3 31 74 31 C74 54.76 74 78.52 74 103 C64.1 103 54.2 103 44 103 C44 79.24 44 55.48 44 31 C29.48 31 14.96 31 0 31 C0 20.77 0 10.54 0 0 Z " fill="#000000" transform="translate(34,51)"/>
<path d="M0 0 C1.98454618 1.63536653 3.94541756 3.30012976 5.875 5 C7.10089844 6.07701172 7.10089844 6.07701172 8.3515625 7.17578125 C26.39653921 24.13557895 35.33739687 47.53269479 37.078125 71.8359375 C37.56398657 98.15343929 28.20480365 121.26055923 10.49609375 140.59765625 C-7.40706758 159.17323678 -31.23240937 168.48993433 -56.875 169.3125 C-83.49389267 168.70427261 -106.47513447 158.870574 -125.125 140 C-125.85203125 139.28328125 -126.5790625 138.5665625 -127.328125 137.828125 C-136.59791637 128.12039073 -143.14454759 115.73744771 -147.125 103 C-147.44339844 102.030625 -147.76179687 101.06125 -148.08984375 100.0625 C-154.78594607 75.37640849 -150.32852839 49.2883132 -138.37792969 27.16699219 C-135.18187194 21.63928201 -131.34404015 16.78918071 -127.125 12 C-126.40699219 11.18273437 -125.68898438 10.36546875 -124.94921875 9.5234375 C-93.03573979 -24.43203737 -36.74492566 -28.2894172 0 0 Z M-117.125 16 C-117.88683594 16.73734375 -118.64867188 17.4746875 -119.43359375 18.234375 C-135.9177778 35.2613658 -141.72800643 57.10367434 -141.39453125 80.24609375 C-140.62126915 103.31063571 -128.81958454 123.54713029 -112.3359375 139.203125 C-107.43248658 143.62914255 -101.94662594 146.89368467 -96.125 150 C-95.23296875 150.48082031 -94.3409375 150.96164063 -93.421875 151.45703125 C-74.7683017 160.70004437 -52.48881658 162.09004686 -32.59375 156.19140625 C-31.4490625 155.79824219 -30.304375 155.40507812 -29.125 155 C-28.0628125 154.63777344 -27.000625 154.27554688 -25.90625 153.90234375 C-4.5455122 145.78196018 10.90899803 129.33886247 20.59375 109.0546875 C28.6565659 89.83175446 30.22318215 66.71865127 22.875 47 C13.21968123 23.90382104 -2.35350855 7.01735852 -25.125 -3.375 C-57.41112185 -16.23230516 -92.50220631 -8.182386 -117.125 16 Z " fill="#000000" transform="translate(150.125,18)"/>
<path d="M0 0 C5.28 0 10.56 0 16 0 C18.64 11.22 21.28 22.44 24 34 C27.32185299 21.60301793 27.32185299 21.60301793 30.1875 9.125 C31.86600626 1.13399374 31.86600626 1.13399374 33 0 C38.28 0 43.56 0 49 0 C49 16.5 49 33 49 50 C45.37 50 41.74 50 38 50 C37.67 40.1 37.34 30.2 37 20 C33.535 34.85 33.535 34.85 30 50 C26.04 50 22.08 50 18 50 C15.69 39.44 13.38 28.88 11 18 C10.67 28.56 10.34 39.12 10 50 C6.7 50 3.4 50 0 50 C0 33.5 0 17 0 0 Z " fill="#000000" transform="translate(220,25)"/>
<path d="M0 0 C4.970625 -0.0825 9.94125 -0.165 15.0625 -0.25 C16.61718994 -0.28641602 18.17187988 -0.32283203 19.77368164 -0.36035156 C32.74687779 -0.4647636 32.74687779 -0.4647636 38 4 C41.16034851 8.26908956 40.64406456 13.937353 40 19 C38 22.1875 38 22.1875 36 24 C36.804375 24.78375 37.60875 25.5675 38.4375 26.375 C41.63131766 29.64671565 41.94433606 30.16504097 42.25 34.75 C42.18334393 38.83823904 41.2823059 41.53719106 39 45 C34.04298747 49.58523659 30.55587531 50.12471786 23.92578125 50.09765625 C22.67450439 50.09515869 21.42322754 50.09266113 20.1340332 50.09008789 C17.74737427 50.07643188 17.74737427 50.07643188 15.3125 50.0625 C10.259375 50.041875 5.20625 50.02125 0 50 C0 33.5 0 17 0 0 Z M11 9 C11 12.63 11 16.26 11 20 C13.24973447 20.054138 15.49984383 20.09285491 17.75 20.125 C19.62945313 20.15980469 19.62945313 20.15980469 21.546875 20.1953125 C24.72820492 20.01537302 26.36521896 19.68998582 29 18 C29 15.69 29 13.38 29 11 C25.29583874 8.62409858 22.07015427 8.79499714 17.75 8.875 C16.48671875 8.89304687 15.2234375 8.91109375 13.921875 8.9296875 C12.95765625 8.95289063 11.9934375 8.97609375 11 9 Z M11 29 C11 32.96 11 36.92 11 41 C13.22855574 41.0814222 15.45797655 41.13938079 17.6875 41.1875 C18.92886719 41.22230469 20.17023437 41.25710937 21.44921875 41.29296875 C25.21599517 40.98217862 27.02625537 40.27306639 30 38 C31.1576585 36.12042756 31.1576585 36.12042756 31 34 C29.2426201 30.92458518 28.42054006 30.14018002 25 29 C22.60509014 28.93029948 20.20832309 28.91551997 17.8125 28.9375 C16.54019531 28.94652344 15.26789062 28.95554687 13.95703125 28.96484375 C12.98121094 28.97644531 12.00539063 28.98804687 11 29 Z " fill="#000000" transform="translate(736,25)"/>
<path d="M0 0 C1.79244141 0.01740234 1.79244141 0.01740234 3.62109375 0.03515625 C5.41740234 0.04869141 5.41740234 0.04869141 7.25 0.0625 C8.17683594 0.07410156 9.10367188 0.08570312 10.05859375 0.09765625 C20.87063604 29.46565685 20.87063604 29.46565685 24.74609375 40.28515625 C24.98924316 40.95345459 25.23239258 41.62175293 25.48291016 42.31030273 C26.46169431 45.066856 27.05859375 47.14308906 27.05859375 50.09765625 C23.09859375 50.09765625 19.13859375 50.09765625 15.05859375 50.09765625 C14.06859375 46.79765625 13.07859375 43.49765625 12.05859375 40.09765625 C6.11859375 40.09765625 0.17859375 40.09765625 -5.94140625 40.09765625 C-6.25078125 41.56203125 -6.56015625 43.02640625 -6.87890625 44.53515625 C-7.81640625 48.97265625 -7.81640625 48.97265625 -8.94140625 50.09765625 C-10.96104824 50.17009678 -12.98307749 50.18142813 -15.00390625 50.16015625 C-16.10863281 50.15113281 -17.21335937 50.14210937 -18.3515625 50.1328125 C-19.63353516 50.11541016 -19.63353516 50.11541016 -20.94140625 50.09765625 C-17.82669974 41.04663012 -14.70634587 31.9975711 -11.58105469 22.95019531 C-10.98575836 21.22610808 -10.39128358 19.50173725 -9.796875 17.77734375 C-8.82720871 14.96640102 -7.85378936 12.15679312 -6.87890625 9.34765625 C-6.59265381 8.51588867 -6.30640137 7.68412109 -6.01147461 6.82714844 C-3.67648772 0.12206135 -3.67648772 0.12206135 0 0 Z M3.05859375 14.09765625 C2.21939977 16.36647712 1.38707651 18.63742652 0.55859375 20.91015625 C0.32011719 21.55275391 0.08164062 22.19535156 -0.1640625 22.85742188 C-1.21209371 25.74699364 -1.94140625 27.99841686 -1.94140625 31.09765625 C1.68859375 31.09765625 5.31859375 31.09765625 9.05859375 31.09765625 C6.77337034 22.53284877 6.77337034 22.53284877 4.05859375 14.09765625 C3.72859375 14.09765625 3.39859375 14.09765625 3.05859375 14.09765625 Z " fill="#000000" transform="translate(737.94140625,107.90234375)"/>
<path d="M0 0 C4.23016267 1.71493081 6.4505066 4.1668971 8.9375 7.9375 C11.25963812 14.50006426 11.31578018 23.55397152 8.8125 30.0625 C6.20033555 34.29600789 3.79398316 37.40200561 -1 39 C-2.64176695 39.14252401 -4.28982655 39.22026755 -5.9375 39.25 C-6.79214844 39.27578125 -7.64679688 39.3015625 -8.52734375 39.328125 C-11 39 -11 39 -15 36 C-15.33 41.61 -15.66 47.22 -16 53 C-19.3 53 -22.6 53 -26 53 C-26 35.84 -26 18.68 -26 1 C-22.7 1 -19.4 1 -16 1 C-15.67 1.66 -15.34 2.32 -15 3 C-14.44957031 2.5153125 -13.89914062 2.030625 -13.33203125 1.53125 C-9.19964854 -1.18214032 -4.75940054 -0.70684166 0 0 Z M-15 12 C-15.9702889 14.91086669 -16.16467847 16.90223685 -16.1875 19.9375 C-16.20167969 20.79214844 -16.21585937 21.64679688 -16.23046875 22.52734375 C-15.98367251 25.17517462 -15.40029094 26.75556204 -14 29 C-11.59958437 30.73823201 -10.40726587 31.02979994 -7.4375 30.8125 C-4.81246696 29.93748899 -3.71068663 29.13835829 -2 27 C-0.03580392 23.07160785 -0.66551914 18.29250431 -1 14 C-1.88327147 10.85060538 -1.88327147 10.85060538 -4 9 C-9.08003256 7.12259666 -11.31174685 8.20636819 -15 12 Z " fill="#000000" transform="translate(430,120)"/>
<path d="M0 0 C3.63 0 7.26 0 11 0 C11.33 4.62 11.66 9.24 12 14 C13.32 13.34 14.64 12.68 16 12 C20.5588558 11.42921643 24.68873423 11.44201456 28.9375 13.25 C32.29114065 16.09551328 33.87551181 17.79384773 34.34057617 22.29980469 C34.3170105 24.21647949 34.3170105 24.21647949 34.29296875 26.171875 C34.28872391 26.8542926 34.28447906 27.53671021 34.28010559 28.23980713 C34.26336972 30.41028004 34.22572959 32.57980979 34.1875 34.75 C34.17244646 36.22524697 34.15875922 37.70050855 34.14648438 39.17578125 C34.11348377 42.78415844 34.06173767 46.3919871 34 50 C30.37 50 26.74 50 23 50 C22.98018066 49.19256348 22.96036133 48.38512695 22.93994141 47.55322266 C22.84494101 43.91014125 22.73516088 40.26765314 22.625 36.625 C22.5940625 35.35398438 22.563125 34.08296875 22.53125 32.7734375 C22.49257813 31.56171875 22.45390625 30.35 22.4140625 29.1015625 C22.3826416 27.98088379 22.3512207 26.86020508 22.31884766 25.70556641 C22.26588797 22.85289588 22.26588797 22.85289588 20 21 C16.96655046 21.08885 16.96655046 21.08885 14 22 C11.74129892 25.38805161 11.70740587 26.77350741 11.5859375 30.76171875 C11.52792969 32.43911133 11.52792969 32.43911133 11.46875 34.15039062 C11.4378125 35.31763672 11.406875 36.48488281 11.375 37.6875 C11.31699219 39.45577148 11.31699219 39.45577148 11.2578125 41.25976562 C11.16345943 44.17291668 11.08063758 47.08643703 11 50 C7.37 50 3.74 50 0 50 C0 33.5 0 17 0 0 Z " fill="#000000" transform="translate(836,108)"/>
<path d="M0 0 C3.63 0 7.26 0 11 0 C11.33 4.62 11.66 9.24 12 14 C13.32 13.34 14.64 12.68 16 12 C20.5588558 11.42921643 24.68873423 11.44201456 28.9375 13.25 C32.29114065 16.09551328 33.87551181 17.79384773 34.34057617 22.29980469 C34.3170105 24.21647949 34.3170105 24.21647949 34.29296875 26.171875 C34.28872391 26.8542926 34.28447906 27.53671021 34.28010559 28.23980713 C34.26336972 30.41028004 34.22572959 32.57980979 34.1875 34.75 C34.17244646 36.22524697 34.15875922 37.70050855 34.14648438 39.17578125 C34.11348377 42.78415844 34.06173767 46.3919871 34 50 C30.37 50 26.74 50 23 50 C22.98018066 49.19256348 22.96036133 48.38512695 22.93994141 47.55322266 C22.84494101 43.91014125 22.73516088 40.26765314 22.625 36.625 C22.5940625 35.35398438 22.563125 34.08296875 22.53125 32.7734375 C22.49257813 31.56171875 22.45390625 30.35 22.4140625 29.1015625 C22.3826416 27.98088379 22.3512207 26.86020508 22.31884766 25.70556641 C22.26588797 22.85289588 22.26588797 22.85289588 20 21 C16.96655046 21.08885 16.96655046 21.08885 14 22 C11.74129892 25.38805161 11.70740587 26.77350741 11.5859375 30.76171875 C11.52792969 32.43911133 11.52792969 32.43911133 11.46875 34.15039062 C11.4378125 35.31763672 11.406875 36.48488281 11.375 37.6875 C11.31699219 39.45577148 11.31699219 39.45577148 11.2578125 41.25976562 C11.16345943 44.17291668 11.08063758 47.08643703 11 50 C7.37 50 3.74 50 0 50 C0 33.5 0 17 0 0 Z " fill="#000000" transform="translate(469,25)"/>
<path d="M0 0 C1.20269531 -0.02578125 2.40539062 -0.0515625 3.64453125 -0.078125 C7.59417398 0.2876633 9.87811624 1.07836444 13.1875 3.25 C16.07340564 7.12405896 16.58048816 10.01054615 16.6640625 14.79296875 C16.695 16.03111328 16.7259375 17.26925781 16.7578125 18.54492188 C16.77585937 19.82947266 16.79390625 21.11402344 16.8125 22.4375 C16.86334175 24.99356897 16.91783686 27.54956876 16.9765625 30.10546875 C16.99412598 31.23621826 17.01168945 32.36696777 17.02978516 33.53198242 C17.00615874 36.2161925 17.00615874 36.2161925 18.1875 38.25 C14.2275 38.25 10.2675 38.25 6.1875 38.25 C5.8575 37.26 5.5275 36.27 5.1875 35.25 C4.754375 35.724375 4.32125 36.19875 3.875 36.6875 C0.38546819 39.91854798 -3.86699239 39.57578838 -8.36328125 39.54296875 C-11.79843845 39.13206478 -13.51419014 37.77072694 -15.8125 35.25 C-17.66493916 31.54512168 -17.2710162 27.29385812 -16.8125 23.25 C-14.45759511 19.06350242 -12.25449598 17.75977953 -7.8125 16.25 C-5.55132929 15.82056312 -3.27891435 15.44727072 -1 15.125 C0.16144531 14.95742187 1.32289063 14.78984375 2.51953125 14.6171875 C3.84017578 14.43542969 3.84017578 14.43542969 5.1875 14.25 C4.8575 12.93 4.5275 11.61 4.1875 10.25 C1.38704954 9.39349347 1.38704954 9.39349347 -1.8125 9.25 C-2.39 9.889375 -2.9675 10.52875 -3.5625 11.1875 C-6.80039577 14.15557113 -9.524186 13.56224392 -13.765625 13.390625 C-14.77882813 13.32101563 -14.77882813 13.32101563 -15.8125 13.25 C-15.5589147 8.93904992 -15.2279009 6.75285372 -12.4375 3.375 C-8.34793861 0.06440268 -5.1276762 0.06552941 0 0 Z M-5.8125 23.25 C-6.1425 25.23 -6.4725 27.21 -6.8125 29.25 C-3.99541805 31.56537595 -3.99541805 31.56537595 -0.8125 31.0625 C2.89362929 30.0855022 2.89362929 30.0855022 5.1875 27.25 C5.43798636 24.12450983 5.43798636 24.12450983 5.1875 21.25 C1.10371923 21.25 -1.93565913 22.05712589 -5.8125 23.25 Z " fill="#000000" transform="translate(552.8125,119.75)"/>
<path d="M0 0 C1.20269531 -0.02578125 2.40539062 -0.0515625 3.64453125 -0.078125 C7.59417398 0.2876633 9.87811624 1.07836444 13.1875 3.25 C16.07340564 7.12405896 16.58048816 10.01054615 16.6640625 14.79296875 C16.695 16.03111328 16.7259375 17.26925781 16.7578125 18.54492188 C16.77585937 19.82947266 16.79390625 21.11402344 16.8125 22.4375 C16.86334175 24.99356897 16.91783686 27.54956876 16.9765625 30.10546875 C16.99412598 31.23621826 17.01168945 32.36696777 17.02978516 33.53198242 C17.00615874 36.2161925 17.00615874 36.2161925 18.1875 38.25 C14.2275 38.25 10.2675 38.25 6.1875 38.25 C5.8575 37.26 5.5275 36.27 5.1875 35.25 C4.754375 35.724375 4.32125 36.19875 3.875 36.6875 C0.38546819 39.91854798 -3.86699239 39.57578838 -8.36328125 39.54296875 C-11.79843845 39.13206478 -13.51419014 37.77072694 -15.8125 35.25 C-17.66493916 31.54512168 -17.2710162 27.29385812 -16.8125 23.25 C-14.45759511 19.06350242 -12.25449598 17.75977953 -7.8125 16.25 C-5.55132929 15.82056312 -3.27891435 15.44727072 -1 15.125 C0.16144531 14.95742187 1.32289063 14.78984375 2.51953125 14.6171875 C3.84017578 14.43542969 3.84017578 14.43542969 5.1875 14.25 C4.8575 12.93 4.5275 11.61 4.1875 10.25 C1.38704954 9.39349347 1.38704954 9.39349347 -1.8125 9.25 C-2.39 9.889375 -2.9675 10.52875 -3.5625 11.1875 C-6.80039577 14.15557113 -9.524186 13.56224392 -13.765625 13.390625 C-14.77882813 13.32101563 -14.77882813 13.32101563 -15.8125 13.25 C-15.5589147 8.93904992 -15.2279009 6.75285372 -12.4375 3.375 C-8.34793861 0.06440268 -5.1276762 0.06552941 0 0 Z M-5.8125 23.25 C-6.1425 25.23 -6.4725 27.21 -6.8125 29.25 C-3.99541805 31.56537595 -3.99541805 31.56537595 -0.8125 31.0625 C2.89362929 30.0855022 2.89362929 30.0855022 5.1875 27.25 C5.43798636 24.12450983 5.43798636 24.12450983 5.1875 21.25 C1.10371923 21.25 -1.93565913 22.05712589 -5.8125 23.25 Z " fill="#000000" transform="translate(299.8125,119.75)"/>
<path d="M0 0 C1.20269531 -0.02578125 2.40539062 -0.0515625 3.64453125 -0.078125 C7.59417398 0.2876633 9.87811624 1.07836444 13.1875 3.25 C16.07340564 7.12405896 16.58048816 10.01054615 16.6640625 14.79296875 C16.695 16.03111328 16.7259375 17.26925781 16.7578125 18.54492188 C16.77585937 19.82947266 16.79390625 21.11402344 16.8125 22.4375 C16.86334175 24.99356897 16.91783686 27.54956876 16.9765625 30.10546875 C16.99412598 31.23621826 17.01168945 32.36696777 17.02978516 33.53198242 C17.00615874 36.2161925 17.00615874 36.2161925 18.1875 38.25 C14.2275 38.25 10.2675 38.25 6.1875 38.25 C5.8575 37.26 5.5275 36.27 5.1875 35.25 C4.754375 35.724375 4.32125 36.19875 3.875 36.6875 C0.38546819 39.91854798 -3.86699239 39.57578838 -8.36328125 39.54296875 C-11.79843845 39.13206478 -13.51419014 37.77072694 -15.8125 35.25 C-17.66493916 31.54512168 -17.2710162 27.29385812 -16.8125 23.25 C-14.45759511 19.06350242 -12.25449598 17.75977953 -7.8125 16.25 C-5.55132929 15.82056312 -3.27891435 15.44727072 -1 15.125 C0.16144531 14.95742188 1.32289063 14.78984375 2.51953125 14.6171875 C3.84017578 14.43542969 3.84017578 14.43542969 5.1875 14.25 C4.8575 12.93 4.5275 11.61 4.1875 10.25 C1.38704954 9.39349347 1.38704954 9.39349347 -1.8125 9.25 C-2.39 9.889375 -2.9675 10.52875 -3.5625 11.1875 C-6.80039577 14.15557113 -9.524186 13.56224392 -13.765625 13.390625 C-14.77882813 13.32101563 -14.77882813 13.32101563 -15.8125 13.25 C-15.5589147 8.93904992 -15.2279009 6.75285372 -12.4375 3.375 C-8.34793861 0.06440268 -5.1276762 0.06552941 0 0 Z M-5.8125 23.25 C-6.1425 25.23 -6.4725 27.21 -6.8125 29.25 C-3.99541805 31.56537595 -3.99541805 31.56537595 -0.8125 31.0625 C2.89362929 30.0855022 2.89362929 30.0855022 5.1875 27.25 C5.43798636 24.12450983 5.43798636 24.12450983 5.1875 21.25 C1.10371923 21.25 -1.93565913 22.05712589 -5.8125 23.25 Z " fill="#000000" transform="translate(799.8125,36.75)"/>
<path d="M0 0 C1.20269531 -0.02578125 2.40539062 -0.0515625 3.64453125 -0.078125 C7.59417398 0.2876633 9.87811624 1.07836444 13.1875 3.25 C16.07340564 7.12405896 16.58048816 10.01054615 16.6640625 14.79296875 C16.695 16.03111328 16.7259375 17.26925781 16.7578125 18.54492188 C16.77585937 19.82947266 16.79390625 21.11402344 16.8125 22.4375 C16.86334175 24.99356897 16.91783686 27.54956876 16.9765625 30.10546875 C16.99412598 31.23621826 17.01168945 32.36696777 17.02978516 33.53198242 C17.00615874 36.2161925 17.00615874 36.2161925 18.1875 38.25 C14.2275 38.25 10.2675 38.25 6.1875 38.25 C5.8575 37.26 5.5275 36.27 5.1875 35.25 C4.754375 35.724375 4.32125 36.19875 3.875 36.6875 C0.38546819 39.91854798 -3.86699239 39.57578838 -8.36328125 39.54296875 C-11.79843845 39.13206478 -13.51419014 37.77072694 -15.8125 35.25 C-17.66493916 31.54512168 -17.2710162 27.29385812 -16.8125 23.25 C-14.45759511 19.06350242 -12.25449598 17.75977953 -7.8125 16.25 C-5.55132929 15.82056312 -3.27891435 15.44727072 -1 15.125 C0.16144531 14.95742188 1.32289063 14.78984375 2.51953125 14.6171875 C3.84017578 14.43542969 3.84017578 14.43542969 5.1875 14.25 C4.8575 12.93 4.5275 11.61 4.1875 10.25 C1.38704954 9.39349347 1.38704954 9.39349347 -1.8125 9.25 C-2.39 9.889375 -2.9675 10.52875 -3.5625 11.1875 C-6.80039577 14.15557113 -9.524186 13.56224392 -13.765625 13.390625 C-14.77882813 13.32101563 -14.77882813 13.32101563 -15.8125 13.25 C-15.5589147 8.93904992 -15.2279009 6.75285372 -12.4375 3.375 C-8.34793861 0.06440268 -5.1276762 0.06552941 0 0 Z M-5.8125 23.25 C-6.1425 25.23 -6.4725 27.21 -6.8125 29.25 C-3.99541805 31.56537595 -3.99541805 31.56537595 -0.8125 31.0625 C2.89362929 30.0855022 2.89362929 30.0855022 5.1875 27.25 C5.43798636 24.12450983 5.43798636 24.12450983 5.1875 21.25 C1.10371923 21.25 -1.93565913 22.05712589 -5.8125 23.25 Z " fill="#000000" transform="translate(406.8125,36.75)"/>
<path d="M0 0 C1.20269531 -0.02578125 2.40539062 -0.0515625 3.64453125 -0.078125 C7.59417398 0.2876633 9.87811624 1.07836444 13.1875 3.25 C16.07340564 7.12405896 16.58048816 10.01054615 16.6640625 14.79296875 C16.695 16.03111328 16.7259375 17.26925781 16.7578125 18.54492188 C16.77585937 19.82947266 16.79390625 21.11402344 16.8125 22.4375 C16.86334175 24.99356897 16.91783686 27.54956876 16.9765625 30.10546875 C16.99412598 31.23621826 17.01168945 32.36696777 17.02978516 33.53198242 C17.00615874 36.2161925 17.00615874 36.2161925 18.1875 38.25 C14.2275 38.25 10.2675 38.25 6.1875 38.25 C5.8575 37.26 5.5275 36.27 5.1875 35.25 C4.754375 35.724375 4.32125 36.19875 3.875 36.6875 C0.38546819 39.91854798 -3.86699239 39.57578838 -8.36328125 39.54296875 C-11.79843845 39.13206478 -13.51419014 37.77072694 -15.8125 35.25 C-17.66493916 31.54512168 -17.2710162 27.29385812 -16.8125 23.25 C-14.45759511 19.06350242 -12.25449598 17.75977953 -7.8125 16.25 C-5.55132929 15.82056312 -3.27891435 15.44727072 -1 15.125 C0.16144531 14.95742188 1.32289063 14.78984375 2.51953125 14.6171875 C3.84017578 14.43542969 3.84017578 14.43542969 5.1875 14.25 C4.8575 12.93 4.5275 11.61 4.1875 10.25 C1.38704954 9.39349347 1.38704954 9.39349347 -1.8125 9.25 C-2.39 9.889375 -2.9675 10.52875 -3.5625 11.1875 C-6.80039577 14.15557113 -9.524186 13.56224392 -13.765625 13.390625 C-14.77882813 13.32101563 -14.77882813 13.32101563 -15.8125 13.25 C-15.5589147 8.93904992 -15.2279009 6.75285372 -12.4375 3.375 C-8.34793861 0.06440268 -5.1276762 0.06552941 0 0 Z M-5.8125 23.25 C-6.1425 25.23 -6.4725 27.21 -6.8125 29.25 C-3.99541805 31.56537595 -3.99541805 31.56537595 -0.8125 31.0625 C2.89362929 30.0855022 2.89362929 30.0855022 5.1875 27.25 C5.43798636 24.12450983 5.43798636 24.12450983 5.1875 21.25 C1.10371923 21.25 -1.93565913 22.05712589 -5.8125 23.25 Z " fill="#000000" transform="translate(291.8125,36.75)"/>
<path d="M0 0 C4.18336084 2.30319866 6.96959866 5.31171023 8.8359375 9.7109375 C10.50003816 16.20093009 10.60507345 23.41583134 7.9609375 29.6484375 C5.34146921 33.91184796 2.21909096 36.55262603 -2.5390625 38.1484375 C-8.94114526 39.05875696 -15.3606363 39.34358226 -21.1640625 36.1484375 C-25.05301672 33.14409518 -27.31632884 29.91709877 -28.5390625 25.1484375 C-29.34289848 18.44980431 -29.53608688 11.71255995 -25.90625 5.8046875 C-19.45338787 -2.01249405 -9.42288924 -3.16029208 0 0 Z M-16.5390625 11.1484375 C-18.51175647 15.09382545 -17.97970821 19.84748712 -17.5390625 24.1484375 C-15.61642702 27.84581342 -14.49235328 28.8036302 -10.6015625 30.2109375 C-6.64405529 30.13017205 -5.2931163 28.9024913 -2.5390625 26.1484375 C-0.56636853 22.20304955 -1.09841679 17.44938788 -1.5390625 13.1484375 C-3.46169798 9.45106158 -4.58577172 8.4932448 -8.4765625 7.0859375 C-12.43406971 7.16670295 -13.7850087 8.3943837 -16.5390625 11.1484375 Z " fill="#000000" transform="translate(904.5390625,120.8515625)"/>
<path d="M0 0 C4.18336084 2.30319866 6.96959866 5.31171023 8.8359375 9.7109375 C10.50003816 16.20093009 10.60507345 23.41583134 7.9609375 29.6484375 C5.34146921 33.91184796 2.21909096 36.55262603 -2.5390625 38.1484375 C-8.94114526 39.05875696 -15.3606363 39.34358226 -21.1640625 36.1484375 C-25.05301672 33.14409518 -27.31632884 29.91709877 -28.5390625 25.1484375 C-29.34289848 18.44980431 -29.53608688 11.71255995 -25.90625 5.8046875 C-19.45338787 -2.01249405 -9.42288924 -3.16029208 0 0 Z M-16.5390625 11.1484375 C-18.51175647 15.09382545 -17.97970821 19.84748712 -17.5390625 24.1484375 C-15.61642702 27.84581342 -14.49235328 28.8036302 -10.6015625 30.2109375 C-6.64405529 30.13017205 -5.2931163 28.9024913 -2.5390625 26.1484375 C-0.56636853 22.20304955 -1.09841679 17.44938788 -1.5390625 13.1484375 C-3.46169798 9.45106158 -4.58577172 8.4932448 -8.4765625 7.0859375 C-12.43406971 7.16670295 -13.7850087 8.3943837 -16.5390625 11.1484375 Z " fill="#000000" transform="translate(645.5390625,120.8515625)"/>
<path d="M0 0 C4.18336084 2.30319866 6.96959866 5.31171023 8.8359375 9.7109375 C10.50003816 16.20093009 10.60507345 23.41583134 7.9609375 29.6484375 C5.34146921 33.91184796 2.21909096 36.55262603 -2.5390625 38.1484375 C-8.94114526 39.05875696 -15.3606363 39.34358226 -21.1640625 36.1484375 C-25.05301672 33.14409518 -27.31632884 29.91709877 -28.5390625 25.1484375 C-29.34289848 18.44980431 -29.53608688 11.71255995 -25.90625 5.8046875 C-19.45338787 -2.01249405 -9.42288924 -3.16029208 0 0 Z M-16.5390625 11.1484375 C-18.51175647 15.09382545 -17.97970821 19.84748712 -17.5390625 24.1484375 C-15.61642702 27.84581342 -14.49235328 28.8036302 -10.6015625 30.2109375 C-6.64405529 30.13017205 -5.2931163 28.9024913 -2.5390625 26.1484375 C-0.56636853 22.20304955 -1.09841679 17.44938788 -1.5390625 13.1484375 C-3.46169798 9.45106158 -4.58577172 8.4932448 -8.4765625 7.0859375 C-12.43406971 7.16670295 -13.7850087 8.3943837 -16.5390625 11.1484375 Z " fill="#000000" transform="translate(472.5390625,120.8515625)"/>
<path d="M0 0 C4.1618545 3.01734451 6.21434447 6.24118895 8.5 10.8125 C8.5 14.1125 8.5 17.4125 8.5 20.8125 C-0.08 20.8125 -8.66 20.8125 -17.5 20.8125 C-15.20355052 26.46261262 -15.20355052 26.46261262 -12.6875 28.25 C-9.6763985 29.02428324 -7.48557984 28.59134692 -4.5 27.8125 C-3.84 27.1525 -3.18 26.4925 -2.5 25.8125 C0.1015625 25.6171875 0.1015625 25.6171875 3.125 25.6875 C4.62933594 25.71457031 4.62933594 25.71457031 6.1640625 25.7421875 C6.93492187 25.76539062 7.70578125 25.78859375 8.5 25.8125 C6.82368596 31.15575101 4.96936487 34.17038039 0.0078125 36.92578125 C-5.7879487 38.9750613 -12.26843653 39.09103134 -18.0078125 36.8203125 C-22.71891823 34.02146371 -25.74642931 31.07321207 -27.5 25.8125 C-28.11400471 17.89083267 -28.5914052 10.33278343 -23.5 3.8125 C-17.02855926 -2.3432607 -8.29884012 -2.8156779 0 0 Z M-16.5 10.8125 C-16.83 12.1325 -17.16 13.4525 -17.5 14.8125 C-12.22 14.8125 -6.94 14.8125 -1.5 14.8125 C-3.4273342 9.63561531 -3.4273342 9.63561531 -7.5 6.8125 C-12.20781138 6.8125 -13.20934836 7.61078489 -16.5 10.8125 Z " fill="#000000" transform="translate(616.5,38.1875)"/>
<path d="M0 0 C3.96 0 7.92 0 12 0 C14.31 7.26 16.62 14.52 19 22 C20.48012063 19.03975875 21.44466833 16.78280088 22.2890625 13.671875 C22.50820313 12.87265625 22.72734375 12.0734375 22.953125 11.25 C23.17484375 10.425 23.3965625 9.6 23.625 8.75 C23.85445312 7.90953125 24.08390625 7.0690625 24.3203125 6.203125 C24.88395525 4.13643491 25.44248162 2.06835064 26 0 C29.96 0 33.92 0 38 0 C36.54946831 4.42710326 35.09241183 8.85199211 33.62988281 13.27514648 C33.13567483 14.77263504 32.64309793 16.27066312 32.15234375 17.76928711 C29.55851622 25.68630781 26.88699609 33.56777609 23.8828125 41.33984375 C23.42535645 42.52827881 22.96790039 43.71671387 22.49658203 44.94116211 C20.99020728 48.02001516 19.66500359 49.86598849 17 52 C13.984375 52.390625 13.984375 52.390625 10.75 52.25 C9.67234375 52.21390625 8.5946875 52.1778125 7.484375 52.140625 C6.66453125 52.09421875 5.8446875 52.0478125 5 52 C5 49.36 5 46.72 5 44 C7.31 43.34 9.62 42.68 12 42 C13.48954166 37.37950112 11.87015711 33.93610944 10.25390625 29.55078125 C9.96394272 28.73755905 9.67397919 27.92433685 9.37522888 27.08647156 C8.4476742 24.49142174 7.50554006 21.90195785 6.5625 19.3125 C5.62621314 16.71127691 4.69288248 14.10901209 3.76048279 11.50639343 C3.17917618 9.88717657 2.59498097 8.26899341 2.00770569 6.65193176 C0 1.10663706 0 1.10663706 0 0 Z " fill="#000000" transform="translate(986,121)"/>
<path d="M0 0 C3.96 0 7.92 0 12 0 C14.31 7.26 16.62 14.52 19 22 C20.48012063 19.03975875 21.44466833 16.78280088 22.2890625 13.671875 C22.50820313 12.87265625 22.72734375 12.0734375 22.953125 11.25 C23.17484375 10.425 23.3965625 9.6 23.625 8.75 C23.85445312 7.90953125 24.08390625 7.0690625 24.3203125 6.203125 C24.88395525 4.13643491 25.44248162 2.06835064 26 0 C29.96 0 33.92 0 38 0 C36.54946831 4.42710326 35.09241183 8.85199211 33.62988281 13.27514648 C33.13567483 14.77263504 32.64309793 16.27066312 32.15234375 17.76928711 C29.55851622 25.68630781 26.88699609 33.56777609 23.8828125 41.33984375 C23.42535645 42.52827881 22.96790039 43.71671387 22.49658203 44.94116211 C20.99020728 48.02001516 19.66500359 49.86598849 17 52 C13.984375 52.390625 13.984375 52.390625 10.75 52.25 C9.67234375 52.21390625 8.5946875 52.1778125 7.484375 52.140625 C6.66453125 52.09421875 5.8446875 52.0478125 5 52 C5 49.36 5 46.72 5 44 C7.31 43.34 9.62 42.68 12 42 C13.48954166 37.37950112 11.87015711 33.93610944 10.25390625 29.55078125 C9.96394272 28.73755905 9.67397919 27.92433685 9.37522888 27.08647156 C8.4476742 24.49142174 7.50554006 21.90195785 6.5625 19.3125 C5.62621314 16.71127691 4.69288248 14.10901209 3.76048279 11.50639343 C3.17917618 9.88717657 2.59498097 8.26899341 2.00770569 6.65193176 C0 1.10663706 0 1.10663706 0 0 Z " fill="#000000" transform="translate(819,38)"/>
<path d="M0 0 C2.98272777 1.2174399 4.34236009 2.01484325 6.10888672 4.66113281 C7.34320288 7.90079003 7.22368707 10.71017785 7.1953125 14.171875 C7.1924826 14.8542926 7.18965271 15.53671021 7.18673706 16.23980713 C7.17558098 18.41005307 7.15048557 20.57987971 7.125 22.75 C7.11496426 24.22525444 7.10583944 25.70051537 7.09765625 27.17578125 C7.07565687 30.78398942 7.04115883 34.39195375 7 38 C3.37 38 -0.26 38 -4 38 C-4.01458252 37.19256348 -4.02916504 36.38512695 -4.04418945 35.55322266 C-4.11846086 31.9099873 -4.21519025 28.26768967 -4.3125 24.625 C-4.33505859 23.35398438 -4.35761719 22.08296875 -4.38085938 20.7734375 C-4.4340332 18.95585937 -4.4340332 18.95585937 -4.48828125 17.1015625 C-4.51446533 15.98088379 -4.54064941 14.86020508 -4.56762695 13.70556641 C-4.71031006 12.81272949 -4.85299316 11.91989258 -5 11 C-7.75698184 8.71861055 -7.75698184 8.71861055 -10.5625 9.1875 C-13.33255117 9.83372442 -13.33255117 9.83372442 -15 13 C-15.36798693 15.71075544 -15.36798693 15.71075544 -15.4140625 18.76171875 C-15.47207031 20.43911133 -15.47207031 20.43911133 -15.53125 22.15039062 C-15.5621875 23.31763672 -15.593125 24.48488281 -15.625 25.6875 C-15.68300781 27.45577148 -15.68300781 27.45577148 -15.7421875 29.25976562 C-15.83654057 32.17291668 -15.91936242 35.08643703 -16 38 C-19.63 38 -23.26 38 -27 38 C-27 25.79 -27 13.58 -27 1 C-23.7 1 -20.4 1 -17 1 C-16.67 1.66 -16.34 2.32 -16 3 C-15.401875 2.505 -14.80375 2.01 -14.1875 1.5 C-9.49189255 -0.70969763 -5.10722444 -0.56832272 0 0 Z " fill="#000000" transform="translate(688,120)"/>
<path d="M0 0 C2.98272777 1.2174399 4.34236009 2.01484325 6.10888672 4.66113281 C7.34320288 7.90079003 7.22368707 10.71017785 7.1953125 14.171875 C7.1924826 14.8542926 7.18965271 15.53671021 7.18673706 16.23980713 C7.17558098 18.41005307 7.15048557 20.57987971 7.125 22.75 C7.11496426 24.22525444 7.10583944 25.70051537 7.09765625 27.17578125 C7.07565687 30.78398942 7.04115883 34.39195375 7 38 C3.37 38 -0.26 38 -4 38 C-4.01458252 37.19256348 -4.02916504 36.38512695 -4.04418945 35.55322266 C-4.11846086 31.9099873 -4.21519025 28.26768967 -4.3125 24.625 C-4.33505859 23.35398438 -4.35761719 22.08296875 -4.38085938 20.7734375 C-4.4340332 18.95585937 -4.4340332 18.95585937 -4.48828125 17.1015625 C-4.51446533 15.98088379 -4.54064941 14.86020508 -4.56762695 13.70556641 C-4.71031006 12.81272949 -4.85299316 11.91989258 -5 11 C-7.75698184 8.71861055 -7.75698184 8.71861055 -10.5625 9.1875 C-13.33255117 9.83372442 -13.33255117 9.83372442 -15 13 C-15.36798693 15.71075544 -15.36798693 15.71075544 -15.4140625 18.76171875 C-15.47207031 20.43911133 -15.47207031 20.43911133 -15.53125 22.15039062 C-15.5621875 23.31763672 -15.593125 24.48488281 -15.625 25.6875 C-15.68300781 27.45577148 -15.68300781 27.45577148 -15.7421875 29.25976562 C-15.83654057 32.17291668 -15.91936242 35.08643703 -16 38 C-19.63 38 -23.26 38 -27 38 C-27 25.79 -27 13.58 -27 1 C-23.7 1 -20.4 1 -17 1 C-16.67 1.66 -16.34 2.32 -16 3 C-15.401875 2.505 -14.80375 2.01 -14.1875 1.5 C-9.49189255 -0.70969763 -5.10722444 -0.56832272 0 0 Z " fill="#000000" transform="translate(350,120)"/>
<path d="M0 0 C3.63 0 7.26 0 11 0 C11.01981934 0.80743652 11.03963867 1.61487305 11.06005859 2.44677734 C11.15505899 6.08985875 11.26483912 9.73234686 11.375 13.375 C11.4059375 14.64601562 11.436875 15.91703125 11.46875 17.2265625 C11.50742187 18.43828125 11.54609375 19.65 11.5859375 20.8984375 C11.6173584 22.01911621 11.6487793 23.13979492 11.68115234 24.29443359 C11.73411203 27.14710412 11.73411203 27.14710412 14 29 C17.03344954 28.91115 17.03344954 28.91115 20 28 C22.25870108 24.61194839 22.29259413 23.22649259 22.4140625 19.23828125 C22.45273437 18.12001953 22.49140625 17.00175781 22.53125 15.84960938 C22.5621875 14.68236328 22.593125 13.51511719 22.625 12.3125 C22.66367187 11.13365234 22.70234375 9.95480469 22.7421875 8.74023438 C22.83654057 5.82708332 22.91936242 2.91356297 23 0 C26.63 0 30.26 0 34 0 C34 12.21 34 24.42 34 37 C30.7 37 27.4 37 24 37 C23.67 36.34 23.34 35.68 23 35 C22.401875 35.495 21.80375 35.99 21.1875 36.5 C16.48270625 38.71402059 12.11122161 38.81570008 7 38 C3.33093992 36.1405346 1.31943356 33.95830069 0 30 C-0.08378628 27.7161483 -0.10729915 25.429899 -0.09765625 23.14453125 C-0.0962413 22.48289474 -0.09482635 21.82125824 -0.09336853 21.13957214 C-0.08777996 19.03050172 -0.07522965 16.92153823 -0.0625 14.8125 C-0.05748352 13.38086091 -0.05292087 11.94922015 -0.04882812 10.51757812 C-0.0378143 7.01168412 -0.02055755 3.5058525 0 0 Z " fill="#000000" transform="translate(770,121)"/>
<path d="M0 0 C3.63 0 7.26 0 11 0 C11.01981934 0.80743652 11.03963867 1.61487305 11.06005859 2.44677734 C11.15505899 6.08985875 11.26483912 9.73234686 11.375 13.375 C11.4059375 14.64601563 11.436875 15.91703125 11.46875 17.2265625 C11.50742187 18.43828125 11.54609375 19.65 11.5859375 20.8984375 C11.6173584 22.01911621 11.6487793 23.13979492 11.68115234 24.29443359 C11.73411203 27.14710412 11.73411203 27.14710412 14 29 C17.03344954 28.91115 17.03344954 28.91115 20 28 C22.25870108 24.61194839 22.29259413 23.22649259 22.4140625 19.23828125 C22.45273437 18.12001953 22.49140625 17.00175781 22.53125 15.84960938 C22.5621875 14.68236328 22.593125 13.51511719 22.625 12.3125 C22.66367187 11.13365234 22.70234375 9.95480469 22.7421875 8.74023438 C22.83654057 5.82708332 22.91936242 2.91356297 23 0 C26.63 0 30.26 0 34 0 C34 12.21 34 24.42 34 37 C30.7 37 27.4 37 24 37 C23.67 36.34 23.34 35.68 23 35 C22.401875 35.495 21.80375 35.99 21.1875 36.5 C16.48270625 38.71402059 12.11122161 38.81570008 7 38 C3.33093992 36.1405346 1.31943356 33.95830069 0 30 C-0.08378628 27.7161483 -0.10729915 25.429899 -0.09765625 23.14453125 C-0.0962413 22.48289474 -0.09482635 21.82125824 -0.09336853 21.13957214 C-0.08777996 19.03050172 -0.07522965 16.92153823 -0.0625 14.8125 C-0.05748352 13.38086091 -0.05292087 11.94922015 -0.04882812 10.51757812 C-0.0378143 7.01168412 -0.02055755 3.5058525 0 0 Z " fill="#000000" transform="translate(512,38)"/>
<path d="M0 0 C0.78375 0.556875 1.5675 1.11375 2.375 1.6875 C3.2721875 2.30625 3.2721875 2.30625 4.1875 2.9375 C6.03138199 5.65479978 6.07205456 8.4762783 6.375 11.6875 C3.01125863 11.91859674 -0.26804846 12.0492634 -3.625 11.6875 C-5.8125 9.6875 -5.8125 9.6875 -7.625 7.6875 C-11.2925213 7.35332071 -11.2925213 7.35332071 -14.625 7.6875 C-14.295 9.0075 -13.965 10.3275 -13.625 11.6875 C-12.60019531 11.92984375 -11.57539063 12.1721875 -10.51953125 12.421875 C-9.158686 12.75974003 -7.79801803 13.09831969 -6.4375 13.4375 C-5.76396484 13.59476563 -5.09042969 13.75203125 -4.39648438 13.9140625 C0.05793361 15.04396365 3.05321042 16.50959208 6.375 19.6875 C7.99122481 22.91994962 7.95954308 26.19323136 7.375 29.6875 C5.3037459 33.48203751 2.42607452 36.17353188 -1.625 37.6875 C-5.0859375 37.98828125 -5.0859375 37.98828125 -9 38 C-10.28648437 38.01675781 -11.57296875 38.03351563 -12.8984375 38.05078125 C-18.34553495 37.51977489 -21.51722553 36.02849015 -25 31.8125 C-26.625 28.6875 -26.625 28.6875 -26.625 23.6875 C-23.325 23.6875 -20.025 23.6875 -16.625 23.6875 C-16.295 25.0075 -15.965 26.3275 -15.625 27.6875 C-14.18774129 27.85623478 -12.75018162 28.02240737 -11.3125 28.1875 C-10.11173828 28.32671875 -10.11173828 28.32671875 -8.88671875 28.46875 C-6.50603445 28.73563463 -6.50603445 28.73563463 -3.625 28.6875 C-3.625 27.3675 -3.625 26.0475 -3.625 24.6875 C-4.79417969 24.38457031 -5.96335937 24.08164063 -7.16796875 23.76953125 C-8.71638647 23.34723551 -10.26455056 22.92400904 -11.8125 22.5 C-12.58142578 22.30341797 -13.35035156 22.10683594 -14.14257812 21.90429688 C-19.17893135 20.49930563 -22.3171148 18.96370524 -25.625 14.6875 C-26.2458906 10.7758892 -26.56749028 8.3758192 -24.6328125 4.91015625 C-18.51450899 -2.86122926 -8.91213598 -3.22680785 0 0 Z " fill="#000000" transform="translate(389.625,121.3125)"/>
<path d="M0 0 C0.78375 0.556875 1.5675 1.11375 2.375 1.6875 C3.2721875 2.30625 3.2721875 2.30625 4.1875 2.9375 C6.03138199 5.65479978 6.07205456 8.4762783 6.375 11.6875 C3.01125863 11.91859674 -0.26804846 12.0492634 -3.625 11.6875 C-5.8125 9.6875 -5.8125 9.6875 -7.625 7.6875 C-11.2925213 7.35332071 -11.2925213 7.35332071 -14.625 7.6875 C-14.295 9.0075 -13.965 10.3275 -13.625 11.6875 C-12.60019531 11.92984375 -11.57539062 12.1721875 -10.51953125 12.421875 C-9.158686 12.75974003 -7.79801803 13.09831969 -6.4375 13.4375 C-5.76396484 13.59476563 -5.09042969 13.75203125 -4.39648438 13.9140625 C0.05793361 15.04396365 3.05321042 16.50959208 6.375 19.6875 C7.99122481 22.91994962 7.95954308 26.19323136 7.375 29.6875 C5.3037459 33.48203751 2.42607452 36.17353188 -1.625 37.6875 C-5.0859375 37.98828125 -5.0859375 37.98828125 -9 38 C-10.28648437 38.01675781 -11.57296875 38.03351563 -12.8984375 38.05078125 C-18.34553495 37.51977489 -21.51722553 36.02849015 -25 31.8125 C-26.625 28.6875 -26.625 28.6875 -26.625 23.6875 C-23.325 23.6875 -20.025 23.6875 -16.625 23.6875 C-16.295 25.0075 -15.965 26.3275 -15.625 27.6875 C-14.18774129 27.85623478 -12.75018162 28.02240737 -11.3125 28.1875 C-10.11173828 28.32671875 -10.11173828 28.32671875 -8.88671875 28.46875 C-6.50603445 28.73563463 -6.50603445 28.73563463 -3.625 28.6875 C-3.625 27.3675 -3.625 26.0475 -3.625 24.6875 C-4.79417969 24.38457031 -5.96335937 24.08164062 -7.16796875 23.76953125 C-8.71638647 23.34723551 -10.26455056 22.92400904 -11.8125 22.5 C-12.58142578 22.30341797 -13.35035156 22.10683594 -14.14257812 21.90429688 C-19.17893135 20.49930563 -22.3171148 18.96370524 -25.625 14.6875 C-26.2458906 10.7758892 -26.56749028 8.3758192 -24.6328125 4.91015625 C-18.51450899 -2.86122926 -8.91213598 -3.22680785 0 0 Z " fill="#000000" transform="translate(701.625,38.3125)"/>
<path d="M0 0 C0.78375 0.556875 1.5675 1.11375 2.375 1.6875 C3.2721875 2.30625 3.2721875 2.30625 4.1875 2.9375 C6.03138199 5.65479978 6.07205456 8.4762783 6.375 11.6875 C3.01125863 11.91859674 -0.26804846 12.0492634 -3.625 11.6875 C-5.8125 9.6875 -5.8125 9.6875 -7.625 7.6875 C-11.2925213 7.35332071 -11.2925213 7.35332071 -14.625 7.6875 C-14.295 9.0075 -13.965 10.3275 -13.625 11.6875 C-12.60019531 11.92984375 -11.57539062 12.1721875 -10.51953125 12.421875 C-9.158686 12.75974003 -7.79801803 13.09831969 -6.4375 13.4375 C-5.76396484 13.59476563 -5.09042969 13.75203125 -4.39648438 13.9140625 C0.05793361 15.04396365 3.05321042 16.50959208 6.375 19.6875 C7.99122481 22.91994962 7.95954308 26.19323136 7.375 29.6875 C5.3037459 33.48203751 2.42607452 36.17353188 -1.625 37.6875 C-5.0859375 37.98828125 -5.0859375 37.98828125 -9 38 C-10.28648437 38.01675781 -11.57296875 38.03351563 -12.8984375 38.05078125 C-18.34553495 37.51977489 -21.51722553 36.02849015 -25 31.8125 C-26.625 28.6875 -26.625 28.6875 -26.625 23.6875 C-23.325 23.6875 -20.025 23.6875 -16.625 23.6875 C-16.295 25.0075 -15.965 26.3275 -15.625 27.6875 C-14.18774129 27.85623478 -12.75018162 28.02240737 -11.3125 28.1875 C-10.11173828 28.32671875 -10.11173828 28.32671875 -8.88671875 28.46875 C-6.50603445 28.73563463 -6.50603445 28.73563463 -3.625 28.6875 C-3.625 27.3675 -3.625 26.0475 -3.625 24.6875 C-4.79417969 24.38457031 -5.96335937 24.08164062 -7.16796875 23.76953125 C-8.71638647 23.34723551 -10.26455056 22.92400904 -11.8125 22.5 C-12.58142578 22.30341797 -13.35035156 22.10683594 -14.14257812 21.90429688 C-19.17893135 20.49930563 -22.3171148 18.96370524 -25.625 14.6875 C-26.2458906 10.7758892 -26.56749028 8.3758192 -24.6328125 4.91015625 C-18.51450899 -2.86122926 -8.91213598 -3.22680785 0 0 Z " fill="#000000" transform="translate(578.625,38.3125)"/>
<path d="M0 0 C0.78375 0.556875 1.5675 1.11375 2.375 1.6875 C3.2721875 2.30625 3.2721875 2.30625 4.1875 2.9375 C6.03138199 5.65479978 6.07205456 8.4762783 6.375 11.6875 C3.01125863 11.91859674 -0.26804846 12.0492634 -3.625 11.6875 C-5.8125 9.6875 -5.8125 9.6875 -7.625 7.6875 C-11.2925213 7.35332071 -11.2925213 7.35332071 -14.625 7.6875 C-14.295 9.0075 -13.965 10.3275 -13.625 11.6875 C-12.60019531 11.92984375 -11.57539063 12.1721875 -10.51953125 12.421875 C-9.158686 12.75974003 -7.79801803 13.09831969 -6.4375 13.4375 C-5.76396484 13.59476563 -5.09042969 13.75203125 -4.39648438 13.9140625 C0.05793361 15.04396365 3.05321042 16.50959208 6.375 19.6875 C7.99122481 22.91994962 7.95954308 26.19323136 7.375 29.6875 C5.3037459 33.48203751 2.42607452 36.17353188 -1.625 37.6875 C-5.0859375 37.98828125 -5.0859375 37.98828125 -9 38 C-10.28648437 38.01675781 -11.57296875 38.03351563 -12.8984375 38.05078125 C-18.34553495 37.51977489 -21.51722553 36.02849015 -25 31.8125 C-26.625 28.6875 -26.625 28.6875 -26.625 23.6875 C-23.325 23.6875 -20.025 23.6875 -16.625 23.6875 C-16.295 25.0075 -15.965 26.3275 -15.625 27.6875 C-14.18774129 27.85623478 -12.75018162 28.02240737 -11.3125 28.1875 C-10.11173828 28.32671875 -10.11173828 28.32671875 -8.88671875 28.46875 C-6.50603445 28.73563463 -6.50603445 28.73563463 -3.625 28.6875 C-3.625 27.3675 -3.625 26.0475 -3.625 24.6875 C-4.79417969 24.38457031 -5.96335937 24.08164062 -7.16796875 23.76953125 C-8.71638647 23.34723551 -10.26455056 22.92400904 -11.8125 22.5 C-12.58142578 22.30341797 -13.35035156 22.10683594 -14.14257812 21.90429688 C-19.17893135 20.49930563 -22.3171148 18.96370524 -25.625 14.6875 C-26.2458906 10.7758892 -26.56749028 8.3758192 -24.6328125 4.91015625 C-18.51450899 -2.86122926 -8.91213598 -3.22680785 0 0 Z " fill="#000000" transform="translate(378.625,38.3125)"/>
<path d="M0 0 C0.78375 0.556875 1.5675 1.11375 2.375 1.6875 C3.2721875 2.30625 3.2721875 2.30625 4.1875 2.9375 C6.03138199 5.65479978 6.07205456 8.4762783 6.375 11.6875 C3.01125863 11.91859674 -0.26804846 12.0492634 -3.625 11.6875 C-5.8125 9.6875 -5.8125 9.6875 -7.625 7.6875 C-11.2925213 7.35332071 -11.2925213 7.35332071 -14.625 7.6875 C-14.295 9.0075 -13.965 10.3275 -13.625 11.6875 C-12.60019531 11.92984375 -11.57539063 12.1721875 -10.51953125 12.421875 C-9.158686 12.75974003 -7.79801803 13.09831969 -6.4375 13.4375 C-5.76396484 13.59476563 -5.09042969 13.75203125 -4.39648438 13.9140625 C0.05793361 15.04396365 3.05321042 16.50959208 6.375 19.6875 C7.99122481 22.91994962 7.95954308 26.19323136 7.375 29.6875 C5.3037459 33.48203751 2.42607452 36.17353188 -1.625 37.6875 C-5.0859375 37.98828125 -5.0859375 37.98828125 -9 38 C-10.28648437 38.01675781 -11.57296875 38.03351563 -12.8984375 38.05078125 C-18.34553495 37.51977489 -21.51722553 36.02849015 -25 31.8125 C-26.625 28.6875 -26.625 28.6875 -26.625 23.6875 C-23.325 23.6875 -20.025 23.6875 -16.625 23.6875 C-16.295 25.0075 -15.965 26.3275 -15.625 27.6875 C-14.18774129 27.85623478 -12.75018162 28.02240737 -11.3125 28.1875 C-10.11173828 28.32671875 -10.11173828 28.32671875 -8.88671875 28.46875 C-6.50603445 28.73563463 -6.50603445 28.73563463 -3.625 28.6875 C-3.625 27.3675 -3.625 26.0475 -3.625 24.6875 C-4.79417969 24.38457031 -5.96335937 24.08164062 -7.16796875 23.76953125 C-8.71638647 23.34723551 -10.26455056 22.92400904 -11.8125 22.5 C-12.58142578 22.30341797 -13.35035156 22.10683594 -14.14257812 21.90429688 C-19.17893135 20.49930563 -22.3171148 18.96370524 -25.625 14.6875 C-26.2458906 10.7758892 -26.56749028 8.3758192 -24.6328125 4.91015625 C-18.51450899 -2.86122926 -8.91213598 -3.22680785 0 0 Z " fill="#000000" transform="translate(339.625,38.3125)"/>
<path d="M0 0 C13.53 0 27.06 0 41 0 C41 2.97 41 5.94 41 9 C36.05 9 31.1 9 26 9 C26 22.53 26 36.06 26 50 C22.37 50 18.74 50 15 50 C15 36.47 15 22.94 15 9 C10.05 9 5.1 9 0 9 C0 6.03 0 3.06 0 0 Z " fill="#000000" transform="translate(216,108)"/>
<path d="M0 0 C2.9035265 1.8744285 5.23968428 4.24284786 6.91796875 7.24609375 C7.60546875 10.49609375 7.60546875 10.49609375 7.91796875 13.24609375 C4.28796875 13.24609375 0.65796875 13.24609375 -3.08203125 13.24609375 C-3.74203125 11.92609375 -4.40203125 10.60609375 -5.08203125 9.24609375 C-7.99208028 8.16386009 -7.99208028 8.16386009 -11.08203125 8.24609375 C-13.16333762 9.75324664 -13.93816343 10.95835812 -15.08203125 13.24609375 C-15.20410996 15.03468886 -15.25751573 16.82837756 -15.26953125 18.62109375 C-15.29080078 20.05582031 -15.29080078 20.05582031 -15.3125 21.51953125 C-15.07553304 24.32297084 -14.68043595 25.9414172 -13.08203125 28.24609375 C-10.34004008 28.93159154 -7.90211654 29.24609375 -5.08203125 29.24609375 C-4.42203125 27.26609375 -3.76203125 25.28609375 -3.08203125 23.24609375 C0.54796875 23.24609375 4.17796875 23.24609375 7.91796875 23.24609375 C6.09938518 30.01526593 4.73172483 33.28779174 -1.08203125 37.24609375 C-5.5012805 39.45571837 -11.27171342 38.66208957 -16.08203125 38.24609375 C-21.05423925 35.97806905 -23.38406105 32.94256039 -26.08203125 28.24609375 C-28.31306019 21.55300693 -27.97363236 13.41796773 -25.13671875 6.93359375 C-19.97290965 -1.32850081 -8.82854914 -3.19682924 0 0 Z " fill="#000000" transform="translate(456.08203125,37.75390625)"/>
<path d="M0 0 C3.63 0 7.26 0 11 0 C11 3.3 11 6.6 11 10 C12.98 10 14.96 10 17 10 C17 12.31 17 14.62 17 17 C15.02 17 13.04 17 11 17 C11.33 24.26 11.66 31.52 12 39 C13.65 39.33 15.3 39.66 17 40 C17 42.64 17 45.28 17 48 C15.08404032 48.08133791 13.16708068 48.13934367 11.25 48.1875 C9.64898438 48.23970703 9.64898438 48.23970703 8.015625 48.29296875 C4.65263456 47.96625336 3.36358747 47.36910987 1 45 C-0.0592918 41.82212459 -0.11458939 39.57411057 -0.09765625 36.23828125 C-0.09443359 35.12001953 -0.09121094 34.00175781 -0.08789062 32.84960938 C-0.07951172 31.68236328 -0.07113281 30.51511719 -0.0625 29.3125 C-0.05798828 28.13365234 -0.05347656 26.95480469 -0.04882812 25.74023438 C-0.03703273 22.82677211 -0.0205727 19.91341137 0 17 C-1.65 17 -3.3 17 -5 17 C-5 14.69 -5 12.38 -5 10 C-3.35 10 -1.7 10 0 10 C0 6.7 0 3.4 0 0 Z " fill="#000000" transform="translate(967,111)"/>
<path d="M0 0 C3.63 0 7.26 0 11 0 C11 3.3 11 6.6 11 10 C12.98 10 14.96 10 17 10 C17 12.31 17 14.62 17 17 C15.02 17 13.04 17 11 17 C11.33 24.26 11.66 31.52 12 39 C13.65 39.33 15.3 39.66 17 40 C17 42.64 17 45.28 17 48 C15.08404032 48.08133791 13.16708068 48.13934367 11.25 48.1875 C9.64898438 48.23970703 9.64898438 48.23970703 8.015625 48.29296875 C4.65263456 47.96625336 3.36358747 47.36910987 1 45 C-0.0592918 41.82212459 -0.11458939 39.57411057 -0.09765625 36.23828125 C-0.09443359 35.12001953 -0.09121094 34.00175781 -0.08789062 32.84960938 C-0.07951172 31.68236328 -0.07113281 30.51511719 -0.0625 29.3125 C-0.05798828 28.13365234 -0.05347656 26.95480469 -0.04882812 25.74023438 C-0.03703273 22.82677211 -0.0205727 19.91341137 0 17 C-1.65 17 -3.3 17 -5 17 C-5 14.69 -5 12.38 -5 10 C-3.35 10 -1.7 10 0 10 C0 6.7 0 3.4 0 0 Z " fill="#000000" transform="translate(814,111)"/>
<path d="M0 0 C3.63 0 7.26 0 11 0 C11 3.3 11 6.6 11 10 C12.98 10 14.96 10 17 10 C17 12.31 17 14.62 17 17 C15.02 17 13.04 17 11 17 C11.33 24.26 11.66 31.52 12 39 C13.65 39.33 15.3 39.66 17 40 C17 42.64 17 45.28 17 48 C15.08404032 48.08133791 13.16708068 48.13934367 11.25 48.1875 C9.64898438 48.23970703 9.64898438 48.23970703 8.015625 48.29296875 C4.65263456 47.96625336 3.36358747 47.36910987 1 45 C-0.0592918 41.82212459 -0.11458939 39.57411057 -0.09765625 36.23828125 C-0.09443359 35.12001953 -0.09121094 34.00175781 -0.08789062 32.84960938 C-0.07951172 31.68236328 -0.07113281 30.51511719 -0.0625 29.3125 C-0.05798828 28.13365234 -0.05347656 26.95480469 -0.04882812 25.74023438 C-0.03703273 22.82677211 -0.0205727 19.91341137 0 17 C-1.65 17 -3.3 17 -5 17 C-5 14.69 -5 12.38 -5 10 C-3.35 10 -1.7 10 0 10 C0 6.7 0 3.4 0 0 Z " fill="#000000" transform="translate(578,111)"/>
<path d="M0 0 C3.63 0 7.26 0 11 0 C11 3.3 11 6.6 11 10 C12.98 10 14.96 10 17 10 C17 12.31 17 14.62 17 17 C15.02 17 13.04 17 11 17 C11.33 24.26 11.66 31.52 12 39 C13.65 39.33 15.3 39.66 17 40 C17 42.64 17 45.28 17 48 C15.08404032 48.08133791 13.16708068 48.13934367 11.25 48.1875 C9.64898438 48.23970703 9.64898438 48.23970703 8.015625 48.29296875 C4.65263456 47.96625336 3.36358747 47.36910987 1 45 C-0.0592918 41.82212459 -0.11458939 39.57411057 -0.09765625 36.23828125 C-0.09443359 35.12001953 -0.09121094 34.00175781 -0.08789062 32.84960938 C-0.07951172 31.68236328 -0.07113281 30.51511719 -0.0625 29.3125 C-0.05798828 28.13365234 -0.05347656 26.95480469 -0.04882812 25.74023438 C-0.03703273 22.82677211 -0.0205727 19.91341137 0 17 C-1.65 17 -3.3 17 -5 17 C-5 14.69 -5 12.38 -5 10 C-3.35 10 -1.7 10 0 10 C0 6.7 0 3.4 0 0 Z " fill="#000000" transform="translate(516,111)"/>
<path d="M0 0 C3.63 0 7.26 0 11 0 C11 3.3 11 6.6 11 10 C12.98 10 14.96 10 17 10 C17 12.31 17 14.62 17 17 C15.02 17 13.04 17 11 17 C11.33 24.26 11.66 31.52 12 39 C13.65 39.33 15.3 39.66 17 40 C17 42.64 17 45.28 17 48 C15.08404032 48.08133791 13.16708068 48.13934367 11.25 48.1875 C9.64898438 48.23970703 9.64898438 48.23970703 8.015625 48.29296875 C4.65263456 47.96625336 3.36358747 47.36910987 1 45 C-0.0592918 41.82212459 -0.11458939 39.57411057 -0.09765625 36.23828125 C-0.09443359 35.12001953 -0.09121094 34.00175781 -0.08789062 32.84960938 C-0.07951172 31.68236328 -0.07113281 30.51511719 -0.0625 29.3125 C-0.05798828 28.13365234 -0.05347656 26.95480469 -0.04882812 25.74023438 C-0.03703273 22.82677211 -0.0205727 19.91341137 0 17 C-1.65 17 -3.3 17 -5 17 C-5 14.69 -5 12.38 -5 10 C-3.35 10 -1.7 10 0 10 C0 6.7 0 3.4 0 0 Z " fill="#000000" transform="translate(655,28)"/>
<path d="M0 0 C3.63 0 7.26 0 11 0 C11 3.3 11 6.6 11 10 C12.98 10 14.96 10 17 10 C17 12.31 17 14.62 17 17 C15.02 17 13.04 17 11 17 C11.33 24.26 11.66 31.52 12 39 C13.65 39.33 15.3 39.66 17 40 C17 42.64 17 45.28 17 48 C15.08404032 48.08133791 13.16708068 48.13934367 11.25 48.1875 C9.64898438 48.23970703 9.64898438 48.23970703 8.015625 48.29296875 C4.65263456 47.96625336 3.36358747 47.36910987 1 45 C-0.0592918 41.82212459 -0.11458939 39.57411057 -0.09765625 36.23828125 C-0.09443359 35.12001953 -0.09121094 34.00175781 -0.08789062 32.84960938 C-0.07951172 31.68236328 -0.07113281 30.51511719 -0.0625 29.3125 C-0.05798828 28.13365234 -0.05347656 26.95480469 -0.04882812 25.74023438 C-0.03703273 22.82677211 -0.0205727 19.91341137 0 17 C-1.65 17 -3.3 17 -5 17 C-5 14.69 -5 12.38 -5 10 C-3.35 10 -1.7 10 0 10 C0 6.7 0 3.4 0 0 Z " fill="#000000" transform="translate(632,28)"/>
<path d="M0 0 C0 3.3 0 6.6 0 10 C-2.31119792 10.74869792 -4.62239583 11.49739583 -6.93359375 12.24609375 C-8.96219588 12.82155494 -8.96219588 12.82155494 -10 14 C-10.15764405 15.77869726 -10.25100677 17.56318476 -10.31640625 19.34765625 C-10.35830078 20.42724609 -10.40019531 21.50683594 -10.44335938 22.61914062 C-10.48267578 23.75544922 -10.52199219 24.89175781 -10.5625 26.0625 C-10.60568359 27.20267578 -10.64886719 28.34285156 -10.69335938 29.51757812 C-10.79982738 32.34489508 -10.90045262 35.17243092 -11 38 C-14.63 38 -18.26 38 -22 38 C-22 25.79 -22 13.58 -22 1 C-18.7 1 -15.4 1 -12 1 C-11.67 1.99 -11.34 2.98 -11 4 C-10.29875 3.34 -9.5975 2.68 -8.875 2 C-5.56539771 -0.30233203 -3.93774177 -0.36630156 0 0 Z " fill="#000000" transform="translate(942,120)"/>
<path d="M0 0 C0 3.3 0 6.6 0 10 C-2.31119792 10.74869792 -4.62239583 11.49739583 -6.93359375 12.24609375 C-8.96219588 12.82155494 -8.96219588 12.82155494 -10 14 C-10.15764405 15.77869726 -10.25100677 17.56318476 -10.31640625 19.34765625 C-10.35830078 20.42724609 -10.40019531 21.50683594 -10.44335938 22.61914062 C-10.48267578 23.75544922 -10.52199219 24.89175781 -10.5625 26.0625 C-10.60568359 27.20267578 -10.64886719 28.34285156 -10.69335938 29.51757812 C-10.79982738 32.34489508 -10.90045262 35.17243092 -11 38 C-14.63 38 -18.26 38 -22 38 C-22 25.79 -22 13.58 -22 1 C-18.7 1 -15.4 1 -12 1 C-11.67 1.99 -11.34 2.98 -11 4 C-10.29875 3.34 -9.5975 2.68 -8.875 2 C-5.56539771 -0.30233203 -3.93774177 -0.36630156 0 0 Z " fill="#000000" transform="translate(510,120)"/>
<path d="M0 0 C0 3.3 0 6.6 0 10 C-2.31119792 10.74869792 -4.62239583 11.49739583 -6.93359375 12.24609375 C-8.96219588 12.82155494 -8.96219588 12.82155494 -10 14 C-10.15764405 15.77869726 -10.25100677 17.56318476 -10.31640625 19.34765625 C-10.35830078 20.42724609 -10.40019531 21.50683594 -10.44335938 22.61914062 C-10.48267578 23.75544922 -10.52199219 24.89175781 -10.5625 26.0625 C-10.60568359 27.20267578 -10.64886719 28.34285156 -10.69335938 29.51757812 C-10.79982738 32.34489508 -10.90045262 35.17243092 -11 38 C-14.63 38 -18.26 38 -22 38 C-22 25.79 -22 13.58 -22 1 C-18.7 1 -15.4 1 -12 1 C-11.67 1.99 -11.34 2.98 -11 4 C-10.29875 3.34 -9.5975 2.68 -8.875 2 C-5.56539771 -0.30233203 -3.93774177 -0.36630156 0 0 Z " fill="#000000" transform="translate(280,120)"/>
<path d="M0 0 C3.63 0 7.26 0 11 0 C11 12.21 11 24.42 11 37 C7.37 37 3.74 37 0 37 C0 24.79 0 12.58 0 0 Z " fill="#000000" transform="translate(947,121)"/>
<path d="M0 0 C3.63 0 7.26 0 11 0 C11 12.21 11 24.42 11 37 C7.37 37 3.74 37 0 37 C0 24.79 0 12.58 0 0 Z " fill="#000000" transform="translate(600,121)"/>
<path d="M0 0 C3.63 0 7.26 0 11 0 C11 2.97 11 5.94 11 9 C7.37 9 3.74 9 0 9 C0 6.03 0 3.06 0 0 Z " fill="#000000" transform="translate(947,108)"/>
<path d="M0 0 C3.63 0 7.26 0 11 0 C11 2.97 11 5.94 11 9 C7.37 9 3.74 9 0 9 C0 6.03 0 3.06 0 0 Z " fill="#000000" transform="translate(600,108)"/>
</svg>
